<svg xmlns="http://www.w3.org/2000/svg" width="282" viewBox="0 0 282 282" height="282" version="1.0"><path fill="#D9D9D9" d="M 210.769531 262.542969 L 166.992188 262.542969 L 152.859375 191.867188 L 129.140625 191.867188 L 115.007812 262.542969 L 71.230469 262.542969 C 65.855469 262.542969 61.5 266.898438 61.5 272.269531 C 61.5 277.644531 65.855469 282 71.230469 282 L 210.769531 282 C 216.144531 282 220.5 277.644531 220.5 272.269531 C 220.5 266.898438 216.144531 262.542969 210.769531 262.542969 Z M 210.769531 262.542969"/><path fill="#D9D9D9" d="M 64.417969 115.289062 L 64.417969 105.332031 C 28.707031 102.894531 28.660156 80.855469 28.632812 62.941406 C 28.617188 54.007812 28.621094 32.859375 28.625 20.359375 L 64.417969 20.359375 L 64.417969 0.902344 L 18.902344 0.902344 C 13.53125 0.902344 9.175781 5.253906 9.171875 10.625 C 9.171875 10.625 9.148438 49.886719 9.171875 62.976562 C 9.1875 72.9375 9.214844 87.992188 17.210938 101.121094 C 26.085938 115.691406 42.171875 123.640625 65.035156 124.839844 C 64.644531 121.707031 64.417969 118.523438 64.417969 115.289062 Z M 64.417969 115.289062"/><path fill="#D9D9D9" d="M 272.828125 10.625 C 272.824219 5.253906 268.46875 0.902344 263.097656 0.902344 L 217.582031 0.902344 L 217.582031 20.359375 L 253.375 20.359375 C 253.378906 32.859375 253.382812 54.007812 253.367188 62.941406 C 253.339844 80.855469 253.292969 102.894531 217.582031 105.332031 L 217.582031 115.289062 C 217.582031 118.523438 217.355469 121.707031 216.964844 124.839844 C 239.828125 123.640625 255.914062 115.691406 264.789062 101.125 C 272.785156 87.992188 272.8125 72.9375 272.828125 62.976562 C 272.851562 49.886719 272.828125 10.625 272.828125 10.625 Z M 272.828125 10.625"/><path fill="#D9D9D9" d="M 129.234375 90.679688 L 127.476562 102.261719 L 137.949219 97.011719 C 138.910156 96.53125 139.953125 96.289062 141 96.289062 C 142.046875 96.289062 143.09375 96.53125 144.050781 97.011719 L 154.523438 102.261719 L 152.765625 90.679688 C 152.445312 88.554688 153.144531 86.402344 154.652344 84.875 L 162.882812 76.539062 L 151.324219 74.632812 C 149.203125 74.28125 147.371094 72.953125 146.382812 71.042969 L 141 60.636719 L 135.617188 71.042969 C 134.628906 72.949219 132.796875 74.28125 130.675781 74.632812 L 119.117188 76.539062 L 127.347656 84.875 C 128.855469 86.402344 129.554688 88.554688 129.234375 90.679688 Z M 129.234375 90.679688"/><path fill="#D9D9D9" d="M 141 178.246094 C 175.714844 178.246094 203.960938 150.003906 203.960938 115.289062 L 203.960938 0 L 78.039062 0 L 78.039062 115.289062 C 78.039062 150.003906 106.285156 178.246094 141 178.246094 Z M 98.550781 69.855469 C 99.335938 67.433594 101.40625 65.652344 103.917969 65.238281 L 125.089844 61.746094 L 134.949219 42.691406 C 136.121094 40.429688 138.453125 39.011719 141 39.011719 C 143.542969 39.011719 145.878906 40.429688 147.046875 42.691406 L 156.910156 61.746094 L 178.082031 65.238281 C 180.59375 65.652344 182.660156 67.433594 183.449219 69.855469 C 184.234375 72.277344 183.605469 74.933594 181.820312 76.742188 L 166.746094 92.011719 L 169.964844 113.226562 C 170.347656 115.742188 169.296875 118.261719 167.234375 119.757812 C 166.046875 120.621094 164.644531 121.058594 163.230469 121.058594 C 162.1875 121.058594 161.144531 120.820312 160.179688 120.335938 L 141 110.71875 L 121.820312 120.335938 C 119.542969 121.476562 116.824219 121.253906 114.761719 119.757812 C 112.703125 118.261719 111.652344 115.742188 112.03125 113.226562 L 115.253906 92.011719 L 100.179688 76.742188 C 98.390625 74.933594 97.761719 72.277344 98.550781 69.855469 Z M 98.550781 69.855469"/></svg>