<svg xmlns="http://www.w3.org/2000/svg" width="282" viewBox="0 0 282 282" height="282" version="1.0"><path fill="#D9D9D9" d="M 274.5 255.75 L 15 255.75 L 15 18.75 C 15 14.609375 11.640625 11.25 7.5 11.25 C 3.359375 11.25 0 14.609375 0 18.75 L 0 263.25 C 0 267.390625 3.359375 270.75 7.5 270.75 L 274.5 270.75 C 278.644531 270.75 282 267.390625 282 263.25 C 282 259.109375 278.644531 255.75 274.5 255.75 Z M 274.5 255.75"/><path fill="#D9D9D9" d="M 81.308594 96.308594 C 81.308594 96.996094 81.273438 97.679688 81.207031 98.367188 C 81.140625 99.050781 81.039062 99.730469 80.902344 100.40625 C 80.769531 101.078125 80.601562 101.746094 80.402344 102.402344 C 80.203125 103.0625 79.972656 103.707031 79.707031 104.34375 C 79.445312 104.980469 79.152344 105.601562 78.828125 106.207031 C 78.503906 106.8125 78.152344 107.402344 77.769531 107.972656 C 77.386719 108.546875 76.976562 109.097656 76.539062 109.628906 C 76.105469 110.160156 75.644531 110.671875 75.15625 111.15625 C 74.671875 111.644531 74.160156 112.105469 73.628906 112.539062 C 73.097656 112.976562 72.546875 113.386719 71.972656 113.769531 C 71.402344 114.152344 70.8125 114.503906 70.207031 114.828125 C 69.601562 115.152344 68.980469 115.445312 68.34375 115.707031 C 67.707031 115.972656 67.0625 116.203125 66.402344 116.402344 C 65.746094 116.601562 65.078125 116.769531 64.40625 116.902344 C 63.730469 117.039062 63.050781 117.140625 62.367188 117.207031 C 61.679688 117.273438 60.996094 117.308594 60.308594 117.308594 C 59.621094 117.308594 58.933594 117.273438 58.25 117.207031 C 57.566406 117.140625 56.886719 117.039062 56.210938 116.902344 C 55.535156 116.769531 54.871094 116.601562 54.210938 116.402344 C 53.554688 116.203125 52.90625 115.972656 52.269531 115.707031 C 51.636719 115.445312 51.015625 115.152344 50.40625 114.828125 C 49.800781 114.503906 49.210938 114.152344 48.640625 113.769531 C 48.070312 113.386719 47.515625 112.976562 46.984375 112.539062 C 46.453125 112.105469 45.945312 111.644531 45.457031 111.15625 C 44.972656 110.671875 44.511719 110.160156 44.074219 109.628906 C 43.636719 109.097656 43.230469 108.546875 42.847656 107.972656 C 42.464844 107.402344 42.113281 106.8125 41.789062 106.207031 C 41.464844 105.601562 41.167969 104.980469 40.90625 104.34375 C 40.644531 103.707031 40.410156 103.0625 40.210938 102.402344 C 40.011719 101.746094 39.84375 101.078125 39.710938 100.40625 C 39.578125 99.730469 39.476562 99.050781 39.410156 98.367188 C 39.339844 97.679688 39.308594 96.996094 39.308594 96.308594 C 39.308594 95.621094 39.339844 94.933594 39.410156 94.25 C 39.476562 93.566406 39.578125 92.886719 39.710938 92.210938 C 39.84375 91.535156 40.011719 90.871094 40.210938 90.210938 C 40.410156 89.554688 40.644531 88.90625 40.90625 88.269531 C 41.167969 87.636719 41.464844 87.015625 41.789062 86.40625 C 42.113281 85.800781 42.464844 85.210938 42.847656 84.640625 C 43.230469 84.070312 43.636719 83.515625 44.074219 82.984375 C 44.511719 82.453125 44.972656 81.945312 45.457031 81.457031 C 45.945312 80.972656 46.453125 80.511719 46.984375 80.074219 C 47.515625 79.636719 48.070312 79.230469 48.640625 78.847656 C 49.210938 78.464844 49.800781 78.113281 50.40625 77.789062 C 51.015625 77.464844 51.636719 77.167969 52.269531 76.90625 C 52.90625 76.644531 53.554688 76.410156 54.210938 76.210938 C 54.871094 76.011719 55.535156 75.84375 56.210938 75.710938 C 56.886719 75.578125 57.566406 75.476562 58.25 75.410156 C 58.933594 75.339844 59.621094 75.308594 60.308594 75.308594 C 60.996094 75.308594 61.679688 75.339844 62.367188 75.410156 C 63.050781 75.476562 63.730469 75.578125 64.40625 75.710938 C 65.078125 75.84375 65.746094 76.011719 66.402344 76.210938 C 67.0625 76.410156 67.707031 76.644531 68.34375 76.90625 C 68.980469 77.167969 69.601562 77.464844 70.207031 77.789062 C 70.8125 78.113281 71.402344 78.464844 71.972656 78.847656 C 72.546875 79.230469 73.097656 79.636719 73.628906 80.074219 C 74.160156 80.511719 74.671875 80.972656 75.15625 81.457031 C 75.644531 81.945312 76.105469 82.453125 76.539062 82.984375 C 76.976562 83.515625 77.386719 84.070312 77.769531 84.640625 C 78.152344 85.210938 78.503906 85.800781 78.828125 86.40625 C 79.152344 87.015625 79.445312 87.636719 79.707031 88.269531 C 79.972656 88.90625 80.203125 89.554688 80.402344 90.210938 C 80.601562 90.871094 80.769531 91.535156 80.902344 92.210938 C 81.039062 92.886719 81.140625 93.566406 81.207031 94.25 C 81.273438 94.933594 81.308594 95.621094 81.308594 96.308594 Z M 81.308594 96.308594"/><path fill="#D9D9D9" d="M 267.308594 149.566406 C 267.308594 150.253906 267.273438 150.941406 267.207031 151.625 C 267.140625 152.308594 267.039062 152.988281 266.902344 153.664062 C 266.769531 154.335938 266.601562 155.003906 266.402344 155.660156 C 266.203125 156.320312 265.972656 156.964844 265.707031 157.601562 C 265.445312 158.238281 265.152344 158.859375 264.828125 159.464844 C 264.503906 160.070312 264.152344 160.660156 263.769531 161.234375 C 263.386719 161.804688 262.976562 162.355469 262.539062 162.886719 C 262.105469 163.417969 261.644531 163.929688 261.15625 164.414062 C 260.671875 164.902344 260.160156 165.363281 259.628906 165.800781 C 259.097656 166.234375 258.546875 166.644531 257.972656 167.027344 C 257.402344 167.410156 256.8125 167.761719 256.207031 168.085938 C 255.601562 168.410156 254.980469 168.703125 254.34375 168.96875 C 253.707031 169.230469 253.0625 169.460938 252.402344 169.660156 C 251.746094 169.859375 251.078125 170.027344 250.40625 170.164062 C 249.730469 170.296875 249.050781 170.398438 248.367188 170.464844 C 247.679688 170.53125 246.996094 170.566406 246.308594 170.566406 C 245.621094 170.566406 244.933594 170.53125 244.25 170.464844 C 243.566406 170.398438 242.886719 170.296875 242.210938 170.164062 C 241.535156 170.027344 240.871094 169.859375 240.210938 169.660156 C 239.554688 169.460938 238.90625 169.230469 238.269531 168.96875 C 237.636719 168.703125 237.015625 168.410156 236.40625 168.085938 C 235.800781 167.761719 235.210938 167.410156 234.640625 167.027344 C 234.070312 166.644531 233.515625 166.234375 232.984375 165.800781 C 232.453125 165.363281 231.945312 164.902344 231.457031 164.414062 C 230.972656 163.929688 230.511719 163.417969 230.074219 162.886719 C 229.636719 162.355469 229.230469 161.804688 228.847656 161.234375 C 228.464844 160.660156 228.113281 160.070312 227.789062 159.464844 C 227.464844 158.859375 227.167969 158.238281 226.90625 157.601562 C 226.644531 156.964844 226.410156 156.320312 226.210938 155.660156 C 226.011719 155.003906 225.84375 154.335938 225.710938 153.664062 C 225.578125 152.988281 225.476562 152.308594 225.410156 151.625 C 225.339844 150.941406 225.308594 150.253906 225.308594 149.566406 C 225.308594 148.878906 225.339844 148.191406 225.410156 147.507812 C 225.476562 146.824219 225.578125 146.144531 225.710938 145.46875 C 225.84375 144.792969 226.011719 144.128906 226.210938 143.46875 C 226.410156 142.8125 226.644531 142.164062 226.90625 141.53125 C 227.167969 140.894531 227.464844 140.273438 227.789062 139.667969 C 228.113281 139.058594 228.464844 138.46875 228.847656 137.898438 C 229.230469 137.328125 229.636719 136.773438 230.074219 136.242188 C 230.511719 135.710938 230.972656 135.203125 231.457031 134.714844 C 231.945312 134.230469 232.453125 133.769531 232.984375 133.332031 C 233.515625 132.894531 234.070312 132.488281 234.640625 132.105469 C 235.210938 131.722656 235.800781 131.371094 236.40625 131.046875 C 237.015625 130.722656 237.636719 130.425781 238.269531 130.164062 C 238.90625 129.902344 239.554688 129.667969 240.210938 129.46875 C 240.871094 129.269531 241.535156 129.101562 242.210938 128.96875 C 242.886719 128.835938 243.566406 128.734375 244.25 128.667969 C 244.933594 128.597656 245.621094 128.566406 246.308594 128.566406 C 246.996094 128.566406 247.679688 128.597656 248.367188 128.667969 C 249.050781 128.734375 249.730469 128.835938 250.40625 128.96875 C 251.078125 129.101562 251.746094 129.269531 252.402344 129.46875 C 253.0625 129.667969 253.707031 129.902344 254.34375 130.164062 C 254.980469 130.425781 255.601562 130.722656 256.207031 131.046875 C 256.8125 131.371094 257.402344 131.722656 257.972656 132.105469 C 258.546875 132.488281 259.097656 132.894531 259.628906 133.332031 C 260.160156 133.769531 260.671875 134.230469 261.15625 134.714844 C 261.644531 135.203125 262.105469 135.710938 262.539062 136.242188 C 262.976562 136.773438 263.386719 137.328125 263.769531 137.898438 C 264.152344 138.46875 264.503906 139.058594 264.828125 139.667969 C 265.152344 140.273438 265.445312 140.894531 265.707031 141.53125 C 265.972656 142.164062 266.203125 142.8125 266.402344 143.46875 C 266.601562 144.128906 266.769531 144.792969 266.902344 145.46875 C 267.039062 146.144531 267.140625 146.824219 267.207031 147.507812 C 267.273438 148.191406 267.308594 148.878906 267.308594 149.566406 Z M 267.308594 149.566406"/><path fill="#D9D9D9" d="M 87.308594 226.535156 C 87.308594 227.277344 87.234375 228.007812 87.089844 228.730469 C 86.945312 229.457031 86.734375 230.160156 86.449219 230.84375 C 86.167969 231.523438 85.820312 232.171875 85.410156 232.785156 C 85 233.402344 84.535156 233.96875 84.011719 234.492188 C 83.488281 235.015625 82.921875 235.480469 82.308594 235.890625 C 81.695312 236.300781 81.046875 236.648438 80.363281 236.929688 C 79.679688 237.214844 78.976562 237.425781 78.253906 237.570312 C 77.527344 237.714844 76.796875 237.785156 76.058594 237.785156 C 75.320312 237.785156 74.585938 237.714844 73.863281 237.570312 C 73.136719 237.425781 72.433594 237.214844 71.753906 236.929688 C 71.070312 236.648438 70.421875 236.300781 69.808594 235.890625 C 69.191406 235.480469 68.625 235.015625 68.101562 234.492188 C 67.582031 233.96875 67.113281 233.402344 66.703125 232.785156 C 66.292969 232.171875 65.945312 231.523438 65.664062 230.84375 C 65.382812 230.160156 65.167969 229.457031 65.023438 228.730469 C 64.878906 228.007812 64.808594 227.277344 64.808594 226.535156 C 64.808594 225.796875 64.878906 225.066406 65.023438 224.34375 C 65.167969 223.617188 65.382812 222.914062 65.664062 222.230469 C 65.945312 221.550781 66.292969 220.902344 66.703125 220.285156 C 67.113281 219.671875 67.582031 219.105469 68.101562 218.582031 C 68.625 218.058594 69.191406 217.59375 69.808594 217.183594 C 70.421875 216.773438 71.070312 216.425781 71.753906 216.144531 C 72.433594 215.859375 73.136719 215.648438 73.863281 215.503906 C 74.585938 215.359375 75.320312 215.285156 76.058594 215.285156 C 76.796875 215.285156 77.527344 215.359375 78.253906 215.503906 C 78.976562 215.648438 79.679688 215.859375 80.363281 216.144531 C 81.046875 216.425781 81.695312 216.773438 82.308594 217.183594 C 82.921875 217.59375 83.488281 218.058594 84.011719 218.582031 C 84.535156 219.105469 85 219.671875 85.410156 220.285156 C 85.820312 220.902344 86.167969 221.550781 86.449219 222.230469 C 86.734375 222.914062 86.945312 223.617188 87.089844 224.34375 C 87.234375 225.066406 87.308594 225.796875 87.308594 226.535156 Z M 87.308594 226.535156"/><path fill="#D9D9D9" d="M 119.035156 184.910156 C 119.035156 185.429688 118.984375 185.941406 118.882812 186.449219 C 118.78125 186.957031 118.632812 187.449219 118.433594 187.925781 C 118.234375 188.402344 117.992188 188.855469 117.707031 189.285156 C 117.417969 189.714844 117.09375 190.113281 116.726562 190.480469 C 116.359375 190.847656 115.964844 191.171875 115.535156 191.460938 C 115.101562 191.746094 114.648438 191.988281 114.171875 192.1875 C 113.695312 192.386719 113.203125 192.535156 112.695312 192.636719 C 112.1875 192.734375 111.675781 192.785156 111.160156 192.785156 C 110.640625 192.785156 110.128906 192.734375 109.621094 192.636719 C 109.113281 192.535156 108.621094 192.386719 108.144531 192.1875 C 107.667969 191.988281 107.214844 191.746094 106.78125 191.460938 C 106.351562 191.171875 105.957031 190.847656 105.589844 190.480469 C 105.222656 190.113281 104.898438 189.714844 104.609375 189.285156 C 104.324219 188.855469 104.082031 188.402344 103.882812 187.925781 C 103.683594 187.449219 103.535156 186.957031 103.433594 186.449219 C 103.332031 185.941406 103.285156 185.429688 103.285156 184.910156 C 103.285156 184.394531 103.332031 183.882812 103.433594 183.375 C 103.535156 182.867188 103.683594 182.375 103.882812 181.898438 C 104.082031 181.421875 104.324219 180.964844 104.609375 180.535156 C 104.898438 180.105469 105.222656 179.707031 105.589844 179.34375 C 105.957031 178.976562 106.351562 178.652344 106.78125 178.363281 C 107.214844 178.078125 107.667969 177.835938 108.144531 177.636719 C 108.621094 177.4375 109.113281 177.289062 109.621094 177.1875 C 110.128906 177.085938 110.640625 177.035156 111.160156 177.035156 C 111.675781 177.035156 112.1875 177.085938 112.695312 177.1875 C 113.203125 177.289062 113.695312 177.4375 114.171875 177.636719 C 114.648438 177.835938 115.101562 178.078125 115.535156 178.363281 C 115.964844 178.652344 116.359375 178.976562 116.726562 179.34375 C 117.09375 179.707031 117.417969 180.105469 117.707031 180.535156 C 117.992188 180.964844 118.234375 181.421875 118.433594 181.898438 C 118.632812 182.375 118.78125 182.867188 118.882812 183.375 C 118.984375 183.882812 119.035156 184.394531 119.035156 184.910156 Z M 119.035156 184.910156"/><path fill="#D9D9D9" d="M 254.183594 213.058594 C 254.183594 213.574219 254.132812 214.085938 254.03125 214.59375 C 253.929688 215.101562 253.78125 215.59375 253.582031 216.070312 C 253.386719 216.550781 253.140625 217.003906 252.855469 217.433594 C 252.566406 217.863281 252.242188 218.261719 251.875 218.625 C 251.511719 218.992188 251.113281 219.320312 250.683594 219.605469 C 250.253906 219.894531 249.796875 220.136719 249.320312 220.335938 C 248.84375 220.53125 248.351562 220.679688 247.84375 220.78125 C 247.335938 220.882812 246.824219 220.933594 246.308594 220.933594 C 245.789062 220.933594 245.277344 220.882812 244.769531 220.78125 C 244.265625 220.679688 243.773438 220.53125 243.292969 220.335938 C 242.816406 220.136719 242.363281 219.894531 241.933594 219.605469 C 241.503906 219.320312 241.105469 218.992188 240.738281 218.625 C 240.375 218.261719 240.046875 217.863281 239.757812 217.433594 C 239.472656 217.003906 239.230469 216.550781 239.03125 216.070312 C 238.835938 215.59375 238.683594 215.101562 238.582031 214.59375 C 238.484375 214.085938 238.433594 213.574219 238.433594 213.058594 C 238.433594 212.542969 238.484375 212.027344 238.582031 211.523438 C 238.683594 211.015625 238.835938 210.523438 239.03125 210.042969 C 239.230469 209.566406 239.472656 209.113281 239.757812 208.683594 C 240.046875 208.253906 240.375 207.855469 240.738281 207.488281 C 241.105469 207.125 241.503906 206.796875 241.933594 206.511719 C 242.363281 206.222656 242.816406 205.980469 243.292969 205.78125 C 243.773438 205.585938 244.265625 205.4375 244.769531 205.335938 C 245.277344 205.234375 245.789062 205.183594 246.308594 205.183594 C 246.824219 205.183594 247.335938 205.234375 247.84375 205.335938 C 248.351562 205.4375 248.84375 205.585938 249.320312 205.78125 C 249.796875 205.980469 250.253906 206.222656 250.683594 206.511719 C 251.113281 206.796875 251.511719 207.125 251.875 207.488281 C 252.242188 207.855469 252.566406 208.253906 252.855469 208.683594 C 253.140625 209.113281 253.386719 209.566406 253.582031 210.042969 C 253.78125 210.523438 253.929688 211.015625 254.03125 211.523438 C 254.132812 212.027344 254.183594 212.542969 254.183594 213.058594 Z M 254.183594 213.058594"/><path fill="#D9D9D9" d="M 183 118.816406 C 183 119.503906 182.964844 120.191406 182.898438 120.875 C 182.832031 121.558594 182.730469 122.238281 182.597656 122.914062 C 182.460938 123.585938 182.296875 124.253906 182.097656 124.910156 C 181.894531 125.570312 181.664062 126.214844 181.402344 126.851562 C 181.136719 127.488281 180.84375 128.109375 180.519531 128.714844 C 180.195312 129.320312 179.84375 129.910156 179.460938 130.484375 C 179.078125 131.054688 178.667969 131.605469 178.234375 132.136719 C 177.796875 132.667969 177.335938 133.179688 176.847656 133.664062 C 176.363281 134.152344 175.855469 134.613281 175.320312 135.050781 C 174.789062 135.484375 174.238281 135.894531 173.667969 136.277344 C 173.09375 136.660156 172.507812 137.011719 171.898438 137.335938 C 171.292969 137.660156 170.671875 137.953125 170.035156 138.21875 C 169.402344 138.480469 168.753906 138.710938 168.097656 138.910156 C 167.4375 139.109375 166.769531 139.277344 166.097656 139.414062 C 165.421875 139.546875 164.742188 139.648438 164.058594 139.714844 C 163.375 139.78125 162.6875 139.816406 162 139.816406 C 161.3125 139.816406 160.625 139.78125 159.941406 139.714844 C 159.257812 139.648438 158.578125 139.546875 157.902344 139.414062 C 157.230469 139.277344 156.5625 139.109375 155.902344 138.910156 C 155.246094 138.710938 154.597656 138.480469 153.964844 138.21875 C 153.328125 137.953125 152.707031 137.660156 152.101562 137.335938 C 151.492188 137.011719 150.90625 136.660156 150.332031 136.277344 C 149.761719 135.894531 149.210938 135.484375 148.675781 135.050781 C 148.144531 134.613281 147.636719 134.152344 147.152344 133.664062 C 146.664062 133.179688 146.203125 132.667969 145.765625 132.136719 C 145.332031 131.605469 144.921875 131.054688 144.539062 130.484375 C 144.15625 129.910156 143.804688 129.320312 143.480469 128.714844 C 143.15625 128.109375 142.863281 127.488281 142.597656 126.851562 C 142.335938 126.214844 142.105469 125.570312 141.902344 124.910156 C 141.703125 124.253906 141.539062 123.585938 141.402344 122.914062 C 141.269531 122.238281 141.167969 121.558594 141.101562 120.875 C 141.035156 120.191406 141 119.503906 141 118.816406 C 141 118.128906 141.035156 117.441406 141.101562 116.757812 C 141.167969 116.074219 141.269531 115.394531 141.402344 114.71875 C 141.539062 114.042969 141.703125 113.378906 141.902344 112.71875 C 142.105469 112.0625 142.335938 111.414062 142.597656 110.78125 C 142.863281 110.144531 143.15625 109.523438 143.480469 108.917969 C 143.804688 108.308594 144.15625 107.71875 144.539062 107.148438 C 144.921875 106.578125 145.332031 106.023438 145.765625 105.492188 C 146.203125 104.960938 146.664062 104.453125 147.152344 103.964844 C 147.636719 103.480469 148.144531 103.019531 148.675781 102.582031 C 149.210938 102.144531 149.761719 101.738281 150.332031 101.355469 C 150.90625 100.972656 151.492188 100.621094 152.101562 100.296875 C 152.707031 99.972656 153.328125 99.675781 153.964844 99.414062 C 154.597656 99.152344 155.246094 98.917969 155.902344 98.71875 C 156.5625 98.519531 157.230469 98.351562 157.902344 98.21875 C 158.578125 98.085938 159.257812 97.984375 159.941406 97.917969 C 160.625 97.847656 161.3125 97.816406 162 97.816406 C 162.6875 97.816406 163.375 97.847656 164.058594 97.917969 C 164.742188 97.984375 165.421875 98.085938 166.097656 98.21875 C 166.769531 98.351562 167.4375 98.519531 168.097656 98.71875 C 168.753906 98.917969 169.402344 99.152344 170.035156 99.414062 C 170.671875 99.675781 171.292969 99.972656 171.898438 100.296875 C 172.507812 100.621094 173.09375 100.972656 173.667969 101.355469 C 174.238281 101.738281 174.789062 102.144531 175.320312 102.582031 C 175.855469 103.019531 176.363281 103.480469 176.847656 103.964844 C 177.335938 104.453125 177.796875 104.960938 178.234375 105.492188 C 178.667969 106.023438 179.078125 106.578125 179.460938 107.148438 C 179.84375 107.71875 180.195312 108.308594 180.519531 108.917969 C 180.84375 109.523438 181.136719 110.144531 181.402344 110.78125 C 181.664062 111.414062 181.894531 112.0625 182.097656 112.71875 C 182.296875 113.378906 182.460938 114.042969 182.597656 114.71875 C 182.730469 115.394531 182.832031 116.074219 182.898438 116.757812 C 182.964844 117.441406 183 118.128906 183 118.816406 Z M 183 118.816406"/><path fill="#D9D9D9" d="M 216.75 192.785156 C 216.75 193.890625 216.695312 194.996094 216.585938 196.09375 C 216.480469 197.195312 216.316406 198.285156 216.101562 199.371094 C 215.886719 200.457031 215.617188 201.527344 215.296875 202.582031 C 214.976562 203.640625 214.605469 204.679688 214.179688 205.703125 C 213.757812 206.722656 213.285156 207.722656 212.765625 208.695312 C 212.242188 209.671875 211.675781 210.617188 211.0625 211.539062 C 210.449219 212.457031 209.789062 213.34375 209.089844 214.199219 C 208.386719 215.050781 207.644531 215.871094 206.863281 216.652344 C 206.082031 217.433594 205.265625 218.175781 204.410156 218.875 C 203.554688 219.578125 202.667969 220.234375 201.75 220.847656 C 200.832031 221.464844 199.882812 222.03125 198.910156 222.550781 C 197.933594 223.074219 196.9375 223.542969 195.914062 223.96875 C 194.894531 224.390625 193.855469 224.761719 192.796875 225.082031 C 191.738281 225.40625 190.667969 225.671875 189.585938 225.886719 C 188.5 226.105469 187.40625 226.265625 186.308594 226.375 C 185.207031 226.484375 184.105469 226.535156 183 226.535156 C 181.894531 226.535156 180.792969 226.484375 179.691406 226.375 C 178.59375 226.265625 177.5 226.105469 176.414062 225.886719 C 175.332031 225.671875 174.261719 225.40625 173.203125 225.082031 C 172.144531 224.761719 171.105469 224.390625 170.085938 223.96875 C 169.0625 223.542969 168.066406 223.074219 167.089844 222.550781 C 166.117188 222.03125 165.167969 221.464844 164.25 220.847656 C 163.332031 220.234375 162.445312 219.578125 161.589844 218.875 C 160.734375 218.175781 159.917969 217.433594 159.136719 216.652344 C 158.351562 215.871094 157.613281 215.050781 156.910156 214.199219 C 156.210938 213.34375 155.550781 212.457031 154.9375 211.539062 C 154.324219 210.617188 153.757812 209.671875 153.234375 208.695312 C 152.714844 207.722656 152.242188 206.722656 151.820312 205.703125 C 151.394531 204.679688 151.023438 203.640625 150.703125 202.582031 C 150.382812 201.527344 150.113281 200.457031 149.898438 199.371094 C 149.683594 198.285156 149.519531 197.195312 149.414062 196.09375 C 149.304688 194.996094 149.25 193.890625 149.25 192.785156 C 149.25 191.679688 149.304688 190.578125 149.414062 189.480469 C 149.519531 188.378906 149.683594 187.285156 149.898438 186.203125 C 150.113281 185.117188 150.382812 184.046875 150.703125 182.988281 C 151.023438 181.933594 151.394531 180.890625 151.820312 179.871094 C 152.242188 178.851562 152.714844 177.851562 153.234375 176.878906 C 153.757812 175.902344 154.324219 174.957031 154.9375 174.035156 C 155.550781 173.117188 156.210938 172.230469 156.910156 171.375 C 157.613281 170.523438 158.351562 169.703125 159.136719 168.921875 C 159.917969 168.140625 160.734375 167.398438 161.589844 166.699219 C 162.445312 165.996094 163.332031 165.339844 164.25 164.726562 C 165.167969 164.109375 166.117188 163.542969 167.089844 163.023438 C 168.066406 162.5 169.0625 162.027344 170.085938 161.605469 C 171.105469 161.183594 172.144531 160.8125 173.203125 160.488281 C 174.261719 160.167969 175.332031 159.902344 176.414062 159.683594 C 177.5 159.46875 178.59375 159.308594 179.691406 159.199219 C 180.792969 159.089844 181.894531 159.035156 183 159.035156 C 184.105469 159.035156 185.207031 159.089844 186.308594 159.199219 C 187.40625 159.308594 188.5 159.46875 189.585938 159.683594 C 190.667969 159.902344 191.738281 160.167969 192.796875 160.488281 C 193.855469 160.8125 194.894531 161.183594 195.914062 161.605469 C 196.9375 162.027344 197.933594 162.5 198.910156 163.023438 C 199.882812 163.542969 200.832031 164.109375 201.75 164.726562 C 202.667969 165.339844 203.554688 165.996094 204.410156 166.699219 C 205.265625 167.398438 206.082031 168.140625 206.863281 168.921875 C 207.644531 169.703125 208.386719 170.523438 209.089844 171.375 C 209.789062 172.230469 210.449219 173.117188 211.0625 174.035156 C 211.675781 174.957031 212.242188 175.902344 212.765625 176.878906 C 213.285156 177.851562 213.757812 178.851562 214.179688 179.871094 C 214.605469 180.890625 214.976562 181.933594 215.296875 182.988281 C 215.617188 184.046875 215.886719 185.117188 216.101562 186.203125 C 216.316406 187.285156 216.480469 188.378906 216.585938 189.480469 C 216.695312 190.578125 216.75 191.679688 216.75 192.785156 Z M 216.75 192.785156"/><path fill="#D9D9D9" d="M 76.058594 164.285156 C 76.058594 165.027344 75.984375 165.757812 75.839844 166.480469 C 75.695312 167.207031 75.484375 167.910156 75.199219 168.59375 C 74.917969 169.273438 74.570312 169.921875 74.160156 170.535156 C 73.75 171.152344 73.285156 171.71875 72.761719 172.242188 C 72.238281 172.765625 71.671875 173.230469 71.058594 173.640625 C 70.445312 174.050781 69.796875 174.398438 69.113281 174.679688 C 68.429688 174.964844 67.726562 175.175781 67.003906 175.320312 C 66.277344 175.464844 65.546875 175.535156 64.808594 175.535156 C 64.070312 175.535156 63.335938 175.464844 62.613281 175.320312 C 61.886719 175.175781 61.183594 174.964844 60.503906 174.679688 C 59.820312 174.398438 59.171875 174.050781 58.558594 173.640625 C 57.941406 173.230469 57.375 172.765625 56.851562 172.242188 C 56.332031 171.71875 55.863281 171.152344 55.453125 170.535156 C 55.042969 169.921875 54.695312 169.273438 54.414062 168.59375 C 54.132812 167.910156 53.917969 167.207031 53.773438 166.480469 C 53.628906 165.757812 53.558594 165.027344 53.558594 164.285156 C 53.558594 163.546875 53.628906 162.816406 53.773438 162.09375 C 53.917969 161.367188 54.132812 160.664062 54.414062 159.980469 C 54.695312 159.300781 55.042969 158.652344 55.453125 158.035156 C 55.863281 157.421875 56.332031 156.855469 56.851562 156.332031 C 57.375 155.808594 57.941406 155.34375 58.558594 154.933594 C 59.171875 154.523438 59.820312 154.175781 60.503906 153.894531 C 61.183594 153.609375 61.886719 153.398438 62.613281 153.253906 C 63.335938 153.109375 64.070312 153.035156 64.808594 153.035156 C 65.546875 153.035156 66.277344 153.109375 67.003906 153.253906 C 67.726562 153.398438 68.429688 153.609375 69.113281 153.894531 C 69.796875 154.175781 70.445312 154.523438 71.058594 154.933594 C 71.671875 155.34375 72.238281 155.808594 72.761719 156.332031 C 73.285156 156.855469 73.75 157.421875 74.160156 158.035156 C 74.570312 158.652344 74.917969 159.300781 75.199219 159.980469 C 75.484375 160.664062 75.695312 161.367188 75.839844 162.09375 C 75.984375 162.816406 76.058594 163.546875 76.058594 164.285156 Z M 76.058594 164.285156"/><path fill="#D9D9D9" d="M 120.160156 118.816406 C 120.160156 119.109375 120.128906 119.402344 120.070312 119.695312 C 120.015625 119.984375 119.929688 120.265625 119.816406 120.539062 C 119.703125 120.8125 119.5625 121.070312 119.398438 121.316406 C 119.234375 121.5625 119.050781 121.789062 118.839844 121.996094 C 118.632812 122.207031 118.402344 122.394531 118.160156 122.558594 C 117.914062 122.722656 117.652344 122.859375 117.378906 122.972656 C 117.105469 123.085938 116.824219 123.171875 116.535156 123.230469 C 116.246094 123.285156 115.953125 123.316406 115.660156 123.316406 C 115.363281 123.316406 115.070312 123.285156 114.78125 123.230469 C 114.492188 123.171875 114.210938 123.085938 113.9375 122.972656 C 113.664062 122.859375 113.402344 122.722656 113.15625 122.558594 C 112.914062 122.394531 112.683594 122.207031 112.476562 121.996094 C 112.265625 121.789062 112.082031 121.5625 111.917969 121.316406 C 111.753906 121.070312 111.613281 120.8125 111.5 120.539062 C 111.386719 120.265625 111.300781 119.984375 111.246094 119.695312 C 111.1875 119.402344 111.160156 119.109375 111.160156 118.816406 C 111.160156 118.519531 111.1875 118.226562 111.246094 117.9375 C 111.300781 117.648438 111.386719 117.367188 111.5 117.09375 C 111.613281 116.820312 111.753906 116.5625 111.917969 116.316406 C 112.082031 116.070312 112.265625 115.84375 112.476562 115.632812 C 112.683594 115.425781 112.914062 115.238281 113.15625 115.074219 C 113.402344 114.910156 113.664062 114.769531 113.9375 114.660156 C 114.210938 114.546875 114.492188 114.460938 114.78125 114.402344 C 115.070312 114.34375 115.363281 114.316406 115.660156 114.316406 C 115.953125 114.316406 116.246094 114.34375 116.535156 114.402344 C 116.824219 114.460938 117.105469 114.546875 117.378906 114.660156 C 117.652344 114.769531 117.914062 114.910156 118.160156 115.074219 C 118.402344 115.238281 118.632812 115.425781 118.839844 115.632812 C 119.050781 115.84375 119.234375 116.070312 119.398438 116.316406 C 119.5625 116.5625 119.703125 116.820312 119.816406 117.09375 C 119.929688 117.367188 120.015625 117.648438 120.070312 117.9375 C 120.128906 118.226562 120.160156 118.519531 120.160156 118.816406 Z M 120.160156 118.816406"/><path fill="#D9D9D9" d="M 187.5 28.808594 C 187.5 29.101562 187.472656 29.394531 187.414062 29.683594 C 187.355469 29.976562 187.269531 30.257812 187.15625 30.53125 C 187.042969 30.800781 186.90625 31.0625 186.742188 31.308594 C 186.578125 31.554688 186.390625 31.78125 186.183594 31.988281 C 185.972656 32.199219 185.746094 32.386719 185.5 32.550781 C 185.253906 32.714844 184.996094 32.851562 184.722656 32.964844 C 184.449219 33.078125 184.167969 33.164062 183.878906 33.222656 C 183.589844 33.277344 183.296875 33.308594 183 33.308594 C 182.703125 33.308594 182.410156 33.277344 182.121094 33.222656 C 181.832031 33.164062 181.550781 33.078125 181.277344 32.964844 C 181.003906 32.851562 180.746094 32.714844 180.5 32.550781 C 180.253906 32.386719 180.027344 32.199219 179.816406 31.988281 C 179.609375 31.78125 179.421875 31.554688 179.257812 31.308594 C 179.09375 31.0625 178.957031 30.800781 178.84375 30.53125 C 178.730469 30.257812 178.644531 29.976562 178.585938 29.683594 C 178.527344 29.394531 178.5 29.101562 178.5 28.808594 C 178.5 28.511719 178.527344 28.21875 178.585938 27.929688 C 178.644531 27.640625 178.730469 27.359375 178.84375 27.085938 C 178.957031 26.8125 179.09375 26.554688 179.257812 26.308594 C 179.421875 26.0625 179.609375 25.835938 179.816406 25.625 C 180.027344 25.417969 180.253906 25.230469 180.5 25.066406 C 180.746094 24.902344 181.003906 24.761719 181.277344 24.648438 C 181.550781 24.535156 181.832031 24.453125 182.121094 24.394531 C 182.410156 24.335938 182.703125 24.308594 183 24.308594 C 183.296875 24.308594 183.589844 24.335938 183.878906 24.394531 C 184.167969 24.453125 184.449219 24.535156 184.722656 24.648438 C 184.996094 24.761719 185.253906 24.902344 185.5 25.066406 C 185.746094 25.230469 185.972656 25.417969 186.183594 25.625 C 186.390625 25.835938 186.578125 26.0625 186.742188 26.308594 C 186.90625 26.554688 187.042969 26.8125 187.15625 27.085938 C 187.269531 27.359375 187.355469 27.640625 187.414062 27.929688 C 187.472656 28.21875 187.5 28.511719 187.5 28.808594 Z M 187.5 28.808594"/><path fill="#D9D9D9" d="M 216.75 111.308594 C 225.03125 111.308594 231.75 104.59375 231.75 96.308594 C 231.75 88.023438 225.03125 81.308594 216.75 81.308594 C 208.46875 81.308594 201.75 88.023438 201.75 96.308594 C 201.75 104.59375 208.46875 111.308594 216.75 111.308594 Z M 216.75 111.308594"/><path fill="#D9D9D9" d="M 140.410156 52.808594 C 140.410156 53.449219 140.347656 54.082031 140.222656 54.710938 C 140.097656 55.335938 139.910156 55.945312 139.667969 56.539062 C 139.421875 57.128906 139.121094 57.691406 138.765625 58.222656 C 138.410156 58.757812 138.003906 59.25 137.550781 59.703125 C 137.101562 60.15625 136.605469 60.558594 136.074219 60.914062 C 135.542969 61.269531 134.980469 61.570312 134.390625 61.816406 C 133.796875 62.058594 133.1875 62.246094 132.558594 62.371094 C 131.933594 62.496094 131.296875 62.558594 130.660156 62.558594 C 130.019531 62.558594 129.382812 62.496094 128.757812 62.371094 C 128.128906 62.246094 127.519531 62.058594 126.925781 61.816406 C 126.335938 61.570312 125.773438 61.269531 125.242188 60.914062 C 124.710938 60.558594 124.214844 60.15625 123.765625 59.703125 C 123.3125 59.25 122.90625 58.757812 122.550781 58.222656 C 122.195312 57.691406 121.894531 57.128906 121.652344 56.539062 C 121.40625 55.945312 121.21875 55.335938 121.09375 54.710938 C 120.96875 54.082031 120.910156 53.449219 120.910156 52.808594 C 120.910156 52.167969 120.96875 51.535156 121.09375 50.90625 C 121.21875 50.277344 121.40625 49.667969 121.652344 49.078125 C 121.894531 48.484375 122.195312 47.921875 122.550781 47.390625 C 122.90625 46.859375 123.3125 46.367188 123.765625 45.914062 C 124.214844 45.460938 124.710938 45.054688 125.242188 44.699219 C 125.773438 44.34375 126.335938 44.042969 126.925781 43.800781 C 127.519531 43.554688 128.128906 43.371094 128.757812 43.246094 C 129.382812 43.121094 130.019531 43.058594 130.660156 43.058594 C 131.296875 43.058594 131.933594 43.121094 132.558594 43.246094 C 133.1875 43.371094 133.796875 43.554688 134.390625 43.800781 C 134.980469 44.042969 135.542969 44.34375 136.074219 44.699219 C 136.605469 45.054688 137.101562 45.460938 137.550781 45.914062 C 138.003906 46.367188 138.410156 46.859375 138.765625 47.390625 C 139.121094 47.921875 139.421875 48.484375 139.667969 49.078125 C 139.910156 49.667969 140.097656 50.277344 140.222656 50.90625 C 140.347656 51.535156 140.410156 52.167969 140.410156 52.808594 Z M 140.410156 52.808594"/></svg>