<svg xmlns="http://www.w3.org/2000/svg" width="282" viewBox="0 0 282 282" height="282" version="1.0"><path fill="#D9D9D9" d="M 272.890625 5.316406 L 9.113281 5.316406 C 4.089844 5.316406 0 9.40625 0 14.429688 L 0 54.933594 C 0 59.957031 4.089844 64.046875 9.113281 64.046875 L 272.886719 64.046875 C 277.90625 64.046875 282 59.957031 282 54.933594 L 282 14.429688 C 282.003906 9.40625 277.914062 5.316406 272.890625 5.316406 Z M 272.890625 5.316406"/><path fill="#D9D9D9" d="M 272.890625 111.636719 L 9.113281 111.636719 C 4.089844 111.636719 0 115.726562 0 120.75 L 0 161.253906 C 0 166.277344 4.089844 170.367188 9.113281 170.367188 L 272.886719 170.367188 C 277.90625 170.367188 282 166.277344 282 161.253906 L 282 120.75 C 282.003906 115.726562 277.914062 111.636719 272.890625 111.636719 Z M 272.890625 111.636719"/><path fill="#D9D9D9" d="M 272.890625 217.957031 L 9.113281 217.957031 C 4.089844 217.957031 0 222.042969 0 227.070312 L 0 267.574219 C 0 272.597656 4.089844 276.6875 9.113281 276.6875 L 272.886719 276.6875 C 277.90625 276.6875 282 272.597656 282 267.574219 L 282 227.070312 C 282.003906 222.042969 277.914062 217.957031 272.890625 217.957031 Z M 272.890625 217.957031"/></svg>