<svg xmlns="http://www.w3.org/2000/svg" width="282" viewBox="0 0 282 282" height="282" version="1.0"><path fill="#D9D9D9" d="M 281.753906 108.917969 C 281.15625 107.09375 279.578125 105.757812 277.675781 105.480469 L 186.359375 92.210938 L 145.523438 9.46875 C 144.675781 7.742188 142.921875 6.652344 141.003906 6.652344 C 139.085938 6.652344 137.324219 7.742188 136.480469 9.46875 L 95.640625 92.214844 L 4.324219 105.488281 C 2.421875 105.765625 0.847656 107.09375 0.246094 108.925781 C -0.34375 110.746094 0.144531 112.753906 1.523438 114.09375 L 67.605469 178.5 L 52 269.453125 C 51.679688 271.34375 52.457031 273.257812 54.003906 274.386719 C 55.566406 275.527344 57.628906 275.675781 59.320312 274.773438 L 141.003906 231.835938 L 222.675781 274.773438 C 223.410156 275.160156 224.222656 275.351562 225.027344 275.351562 C 226.070312 275.351562 227.109375 275.027344 227.996094 274.386719 C 229.550781 273.257812 230.328125 271.34375 230 269.453125 L 214.402344 178.507812 L 280.480469 114.09375 C 281.855469 112.746094 282.347656 110.742188 281.753906 108.917969 Z M 281.753906 108.917969"/></svg>