<svg xmlns="http://www.w3.org/2000/svg" width="368.25" viewBox="0 0 368.25 368.25" height="368.25" version="1.0"><defs><clipPath id="a"><path d="M 0 1 L 367.5 1 L 367.5 366 L 0 366 Z M 0 1"/></clipPath></defs><g clip-path="url(#a)"><path fill="#D9D9D9" d="M 360.296875 164.847656 L 206.765625 11.308594 C 194.078125 -1.34375 173.445312 -1.359375 160.726562 11.328125 L 7.199219 164.847656 C -2.398438 174.445312 -2.398438 190.011719 7.199219 199.609375 C 16.804688 209.214844 32.363281 209.214844 41.964844 199.609375 L 62.777344 178.796875 L 62.777344 339.492188 C 62.777344 353.957031 74.503906 365.683594 88.972656 365.683594 L 144.933594 365.683594 L 144.933594 292.679688 C 144.933594 287.007812 149.527344 282.402344 155.210938 282.402344 L 212.3125 282.402344 C 217.988281 282.402344 222.585938 287.007812 222.585938 292.679688 L 222.585938 365.6875 L 278.539062 365.6875 C 293.003906 365.6875 304.734375 353.957031 304.734375 339.492188 L 304.734375 178.808594 L 325.53125 199.609375 C 330.335938 204.414062 336.625 206.8125 342.914062 206.8125 C 349.203125 206.8125 355.492188 204.414062 360.296875 199.609375 C 369.902344 190.011719 369.902344 174.445312 360.296875 164.847656 Z M 360.296875 164.847656"/></g></svg>