<svg xmlns="http://www.w3.org/2000/svg" width="282" viewBox="0 0 282 282" height="282" version="1.0"><path fill="#D9D9D9" d="M 99.804688 78.300781 L 122.699219 30.636719 L 133.15625 8.863281 L 131.472656 5.347656 C 129.90625 2.082031 126.601562 0 122.976562 0 L 56.277344 0 C 53.035156 0 50.027344 1.667969 48.292969 4.410156 C 46.574219 7.152344 46.378906 10.585938 47.78125 13.503906 L 89.359375 100.066406 Z M 99.804688 78.300781"/><path fill="#D9D9D9" d="M 233.703125 4.410156 C 231.972656 1.667969 228.964844 0 225.722656 0 L 159.03125 0 C 155.40625 0 152.101562 2.082031 150.535156 5.347656 L 99.035156 112.589844 C 98.996094 112.671875 98.988281 112.753906 98.949219 112.835938 C 98.867188 113.019531 98.832031 113.222656 98.757812 113.417969 C 98.425781 114.3125 98.234375 115.257812 98.1875 116.261719 C 98.175781 116.398438 98.105469 116.519531 98.105469 116.667969 L 98.105469 121.527344 C 110.90625 114.824219 125.441406 110.976562 140.871094 110.976562 C 156.308594 110.976562 170.832031 114.824219 183.648438 121.535156 L 183.648438 118.8125 L 234.21875 13.503906 C 235.621094 10.585938 235.425781 7.152344 233.703125 4.410156 Z M 233.703125 4.410156"/><path fill="#D9D9D9" d="M 140.871094 125.117188 C 97.542969 125.117188 62.421875 160.234375 62.421875 203.5625 C 62.421875 246.882812 97.542969 282 140.871094 282 C 184.191406 282 219.308594 246.882812 219.308594 203.5625 C 219.308594 160.234375 184.191406 125.117188 140.871094 125.117188 Z M 187.496094 189.867188 L 166.554688 210.292969 C 165.898438 210.9375 165.59375 211.855469 165.753906 212.757812 L 170.695312 241.597656 C 170.871094 242.640625 170.4375 243.699219 169.582031 244.324219 C 168.726562 244.949219 167.585938 245.023438 166.65625 244.535156 L 140.753906 230.921875 C 139.941406 230.496094 138.964844 230.496094 138.15625 230.921875 L 112.253906 244.535156 C 111.324219 245.023438 110.179688 244.949219 109.324219 244.324219 C 108.46875 243.699219 108.039062 242.636719 108.210938 241.597656 L 113.15625 212.757812 C 113.3125 211.859375 113.007812 210.9375 112.355469 210.292969 L 91.414062 189.867188 C 90.648438 189.121094 90.382812 188.015625 90.703125 187.011719 C 91.035156 186 91.910156 185.261719 92.949219 185.117188 L 121.917969 180.910156 C 122.820312 180.78125 123.605469 180.210938 124.007812 179.382812 L 136.960938 153.148438 C 137.429688 152.199219 138.398438 151.589844 139.457031 151.589844 C 140.515625 151.589844 141.480469 152.199219 141.949219 153.148438 L 154.902344 179.382812 C 155.304688 180.210938 156.089844 180.78125 156.992188 180.910156 L 185.960938 185.117188 C 187 185.261719 187.875 186 188.207031 187.011719 C 188.527344 188.015625 188.257812 189.121094 187.496094 189.867188 Z M 187.496094 189.867188"/></svg>